<svg width="24" height="25" viewBox="0 0 24 25" fill="none" xmlns="http://www.w3.org/2000/svg">
<path d="M14.8803 12.5009L8.02001 5.64235C7.88903 5.51137 7.82443 5.35372 7.82621 5.16941C7.82799 4.98568 7.89436 4.82804 8.02534 4.69647C8.15691 4.56549 8.31485 4.5 8.49917 4.5C8.68289 4.5 8.84054 4.56549 8.97211 4.69647L15.7604 11.491C15.9038 11.6344 16.0087 11.7944 16.0751 11.971C16.1415 12.1476 16.1744 12.3243 16.1738 12.5009C16.1732 12.6775 16.1403 12.8541 16.0751 13.0307C16.0099 13.2073 15.905 13.3673 15.7604 13.5108L8.96678 20.3062C8.83521 20.4371 8.67815 20.5017 8.49561 20.5C8.31367 20.4982 8.15721 20.4318 8.02623 20.3008C7.89525 20.1699 7.82976 20.0122 7.82976 19.8279C7.82976 19.6436 7.89525 19.4862 8.02623 19.3558L14.8803 12.5009Z" fill="#797979"/>
</svg>
