<svg width="33" height="33" viewBox="0 0 33 33" fill="none" xmlns="http://www.w3.org/2000/svg">
<path d="M9.75952 20.1416H12.4617C12.4617 21.5816 14.3128 22.8083 16.5151 22.8083C18.7174 22.8083 20.5684 21.5816 20.5684 20.1416C20.5684 18.6749 19.1633 18.1416 16.1908 17.4349C13.3265 16.7283 9.75952 15.8483 9.75952 12.1416C9.75952 9.75494 11.7457 7.72827 14.4884 7.04827V4.1416H18.5417V7.04827C21.2845 7.72827 23.2706 9.75494 23.2706 12.1416H20.5684C20.5684 10.7016 18.7174 9.47494 16.5151 9.47494C14.3128 9.47494 12.4617 10.7016 12.4617 12.1416C12.4617 13.6083 13.8669 14.1416 16.8393 14.8483C19.7037 15.5549 23.2706 16.4349 23.2706 20.1416C23.2706 22.5283 21.2845 24.5549 18.5417 25.2349V28.1416H14.4884V25.2349C11.7457 24.5549 9.75952 22.5283 9.75952 20.1416Z" fill="white"/>
</svg>
