<svg width="32" height="32" viewBox="0 0 32 32" fill="none" xmlns="http://www.w3.org/2000/svg">
<path d="M5.66666 7.47968C8.35999 10.933 13.3333 17.333 13.3333 17.333V25.333C13.3333 26.0663 13.9333 26.6663 14.6667 26.6663H17.3333C18.0667 26.6663 18.6667 26.0663 18.6667 25.333V17.333C18.6667 17.333 23.6267 10.933 26.32 7.47968C26.4728 7.28284 26.5673 7.04705 26.5926 6.79915C26.618 6.55125 26.5733 6.30121 26.4635 6.0775C26.3537 5.85379 26.1833 5.6654 25.9717 5.53378C25.7602 5.40215 25.5159 5.33259 25.2667 5.33301H6.71999C5.61333 5.33301 4.98666 6.59968 5.66666 7.47968Z" fill="#004AAC"/>
</svg>
