<svg width="32" height="33" viewBox="0 0 32 33" fill="none" xmlns="http://www.w3.org/2000/svg">
<path d="M5.66666 7.97968C8.35999 11.433 13.3333 17.833 13.3333 17.833V25.833C13.3333 26.5663 13.9333 27.1663 14.6667 27.1663H17.3333C18.0667 27.1663 18.6667 26.5663 18.6667 25.833V17.833C18.6667 17.833 23.6267 11.433 26.32 7.97968C26.4728 7.78284 26.5673 7.54705 26.5926 7.29915C26.618 7.05125 26.5733 6.80121 26.4635 6.5775C26.3537 6.35379 26.1833 6.1654 25.9717 6.03378C25.7602 5.90215 25.5159 5.83259 25.2667 5.83301H6.71999C5.61333 5.83301 4.98666 7.09968 5.66666 7.97968Z" fill="#FFA400"/>
</svg>
