<svg width="33" height="32" viewBox="0 0 33 32" fill="none" xmlns="http://www.w3.org/2000/svg">
  <path d="M28.7925 24.6706V26.0039H4.79248V24.6706L7.45915 22.0039V14.0039C7.45915 9.87057 10.1658 6.23057 14.1258 5.05724V4.67057C14.1258 3.96333 14.4068 3.28505 14.9069 2.78495C15.407 2.28486 16.0852 2.00391 16.7925 2.00391C17.4997 2.00391 18.178 2.28486 18.6781 2.78495C19.1782 3.28505 19.4591 3.96333 19.4591 4.67057V5.05724C23.4191 6.23057 26.1258 9.87057 26.1258 14.0039V22.0039L28.7925 24.6706ZM19.4591 27.3372C19.4591 28.0445 19.1782 28.7228 18.6781 29.2229C18.178 29.723 17.4997 30.0039 16.7925 30.0039C16.0852 30.0039 15.407 29.723 14.9069 29.2229C14.4068 28.7228 14.1258 28.0445 14.1258 27.3372" fill="black"/>
</svg>
