<svg width="33" height="33" viewBox="0 0 33 33" fill="none" xmlns="http://www.w3.org/2000/svg">
  <path d="M13.5833 28.5003H18.9167C18.9167 29.967 17.7167 31.167 16.25 31.167C14.7833 31.167 13.5833 29.967 13.5833 28.5003ZM28.25 25.8337V27.167H4.25V25.8337L6.91667 23.167V15.167C6.91667 11.0337 9.58333 7.43366 13.5833 6.23366V5.83366C13.5833 4.36699 14.7833 3.16699 16.25 3.16699C17.7167 3.16699 18.9167 4.36699 18.9167 5.83366V6.23366C22.9167 7.43366 25.5833 11.0337 25.5833 15.167V23.167L28.25 25.8337ZM22.9167 15.167C22.9167 11.4337 19.9833 8.50033 16.25 8.50033C12.5167 8.50033 9.58333 11.4337 9.58333 15.167V24.5003H22.9167V15.167Z" fill="black"/>
</svg>
