<svg width="25" height="25" viewBox="0 0 25 25" fill="none" xmlns="http://www.w3.org/2000/svg">
<g clip-path="url(#clip0_204_1313)">
<path d="M22.3929 19.1088V20.1802H3.10718V19.1088L5.25004 16.966V10.5374C5.25004 7.21596 7.42503 4.29096 10.6072 3.3481V3.03739C10.6072 2.46907 10.8329 1.92402 11.2348 1.52216C11.6367 1.1203 12.1817 0.894531 12.75 0.894531C13.3184 0.894531 13.8634 1.1203 14.2653 1.52216C14.6671 1.92402 14.8929 2.46907 14.8929 3.03739V3.3481C18.075 4.29096 20.25 7.21596 20.25 10.5374V16.966L22.3929 19.1088ZM14.8929 21.2517C14.8929 21.82 14.6671 22.365 14.2653 22.7669C13.8634 23.1688 13.3184 23.3945 12.75 23.3945C12.1817 23.3945 11.6367 23.1688 11.2348 22.7669C10.8329 22.365 10.6072 21.82 10.6072 21.2517" fill="#004AAC"/>
</g>
<defs>
<clipPath id="clip0_204_1313">
<rect width="24" height="24" fill="white" transform="translate(0.75 0.144531)"/>
</clipPath>
</defs>
</svg>
