<svg width="17" height="17" viewBox="0 0 17 17" fill="none" xmlns="http://www.w3.org/2000/svg">
<g clip-path="url(#clip0_171_819)">
<path d="M16.1474 10.7481C15.0785 15.0361 10.7341 17.6427 6.45221 16.5738C2.16408 15.5049 -0.44254 11.1607 0.626398 6.87884C1.69527 2.59084 6.0334 -0.0157815 10.3215 1.05316C14.6034 2.11578 17.2163 6.46003 16.1474 10.7481Z" fill="url(#paint0_linear_171_819)"/>
<path d="M12.1958 7.8168C12.3521 6.7543 11.5458 6.1793 10.4333 5.79805L10.7958 4.3543L9.92085 4.13555L9.57085 5.5418C9.3396 5.48555 9.1021 5.4293 8.8646 5.3793L9.2146 3.9668L8.3396 3.74805L7.98335 5.18555C7.7896 5.1418 7.6021 5.09805 7.42085 5.0543V5.04805L6.20835 4.74805L5.9771 5.68555C5.9771 5.68555 6.6271 5.83555 6.6146 5.8418C6.97085 5.9293 7.03335 6.1668 7.02085 6.3543L6.60835 7.99805C6.63335 8.0043 6.6646 8.01055 6.7021 8.0293C6.67085 8.02305 6.6396 8.0168 6.60835 8.0043L6.03335 10.3043C5.9896 10.4105 5.8771 10.573 5.63335 10.5105C5.6396 10.523 4.99585 10.3543 4.99585 10.3543L4.55835 11.3605L5.7021 11.648C5.9146 11.7043 6.12085 11.7543 6.3271 11.8105L5.9646 13.2668L6.8396 13.4855L7.2021 12.0418C7.4396 12.1043 7.6771 12.1668 7.9021 12.223L7.54585 13.6605L8.42085 13.8793L8.78335 12.423C10.2833 12.7043 11.4083 12.5918 11.8771 11.2355C12.2583 10.148 11.8583 9.5168 11.0708 9.1043C11.6521 8.97305 12.0833 8.5918 12.1958 7.8168ZM10.1896 10.6293C9.92085 11.7168 8.08335 11.1293 7.4896 10.9793L7.97085 9.04805C8.5646 9.19805 10.4771 9.4918 10.1896 10.6293ZM10.4646 7.79805C10.2146 8.7918 8.6896 8.28555 8.19585 8.16055L8.63335 6.41055C9.1271 6.53555 10.7208 6.7668 10.4646 7.79805Z" fill="white"/>
</g>
<defs>
<linearGradient id="paint0_linear_171_819" x1="799.954" y1="0.429477" x2="799.954" y2="1600.65" gradientUnits="userSpaceOnUse">
<stop stop-color="#F9AA4B"/>
<stop offset="1" stop-color="#F7931A"/>
</linearGradient>
<clipPath id="clip0_171_819">
<rect width="16" height="16" fill="white" transform="translate(0.386719 0.813477)"/>
</clipPath>
</defs>
</svg>
