<svg width="41" height="41" viewBox="0 0 41 41" fill="none" xmlns="http://www.w3.org/2000/svg">
<circle cx="20.0193" cy="20.8135" r="19" stroke="black" stroke-width="2"/>
<path d="M29.246 11.4936C28.9793 10.707 28.2326 10.147 27.3526 10.147H12.686C11.806 10.147 11.0726 10.707 10.7926 11.4936L8.01929 19.4803V30.147C8.01929 30.8803 8.61929 31.4803 9.35262 31.4803H10.686C11.4193 31.4803 12.0193 30.8803 12.0193 30.147V28.8136H28.0193V30.147C28.0193 30.8803 28.6193 31.4803 29.3526 31.4803H30.686C31.4193 31.4803 32.0193 30.8803 32.0193 30.147V19.4803L29.246 11.4936ZM12.686 24.8136C11.5793 24.8136 10.686 23.9203 10.686 22.8136C10.686 21.707 11.5793 20.8136 12.686 20.8136C13.7926 20.8136 14.686 21.707 14.686 22.8136C14.686 23.9203 13.7926 24.8136 12.686 24.8136ZM27.3526 24.8136C26.246 24.8136 25.3526 23.9203 25.3526 22.8136C25.3526 21.707 26.246 20.8136 27.3526 20.8136C28.4593 20.8136 29.3526 21.707 29.3526 22.8136C29.3526 23.9203 28.4593 24.8136 27.3526 24.8136ZM10.686 18.147L12.686 12.147H27.3526L29.3526 18.147H10.686Z" fill="black"/>
</svg>
