<svg width="25" height="25" viewBox="0 0 25 25" fill="none" xmlns="http://www.w3.org/2000/svg">
<path d="M5.25 6.5H23.25V18.5H5.25V6.5ZM14.25 9.5C15.0456 9.5 15.8087 9.81607 16.3713 10.3787C16.9339 10.9413 17.25 11.7044 17.25 12.5C17.25 13.2956 16.9339 14.0587 16.3713 14.6213C15.8087 15.1839 15.0456 15.5 14.25 15.5C13.4544 15.5 12.6913 15.1839 12.1287 14.6213C11.5661 14.0587 11.25 13.2956 11.25 12.5C11.25 11.7044 11.5661 10.9413 12.1287 10.3787C12.6913 9.81607 13.4544 9.5 14.25 9.5ZM9.25 8.5C9.25 9.03043 9.03929 9.53914 8.66421 9.91421C8.28914 10.2893 7.78043 10.5 7.25 10.5V14.5C7.78043 14.5 8.28914 14.7107 8.66421 15.0858C9.03929 15.4609 9.25 15.9696 9.25 16.5H19.25C19.25 15.9696 19.4607 15.4609 19.8358 15.0858C20.2109 14.7107 20.7196 14.5 21.25 14.5V10.5C20.7196 10.5 20.2109 10.2893 19.8358 9.91421C19.4607 9.53914 19.25 9.03043 19.25 8.5H9.25ZM1.25 10.5H3.25V20.5H19.25V22.5H1.25V10.5Z" fill="black"/>
</svg>
