<svg width="15" height="12" viewBox="0 0 15 12" fill="none" xmlns="http://www.w3.org/2000/svg">
<path d="M5.67468 8.86348L13.3476 1.19055C13.5287 1.00948 13.7399 0.918945 13.9814 0.918945C14.2228 0.918945 14.434 1.00948 14.6151 1.19055C14.7962 1.37163 14.8867 1.5868 14.8867 1.83608C14.8867 2.08535 14.7962 2.30022 14.6151 2.48069L6.30843 10.81C6.12736 10.9911 5.91611 11.0816 5.67468 11.0816C5.43325 11.0816 5.222 10.9911 5.04093 10.81L1.14788 6.91695C0.966808 6.73588 0.879894 6.52101 0.887137 6.27234C0.894379 6.02367 0.988838 5.80849 1.17051 5.62682C1.35219 5.44514 1.56736 5.35461 1.81604 5.35521C2.06471 5.35581 2.27958 5.44635 2.46065 5.62682L5.67468 8.86348Z" fill="#F9F9FB"/>
</svg>
