<svg width="8" height="13" viewBox="0 0 8 13" fill="none" xmlns="http://www.w3.org/2000/svg">
<path d="M0.210449 6.49584C0.210449 6.61946 0.232766 6.73357 0.277482 6.83816C0.327082 6.94275 0.401522 7.04263 0.500806 7.1377L6.30039 12.5726C6.46914 12.7343 6.67268 12.8152 6.91091 12.8152C7.0747 12.8152 7.22106 12.7771 7.35016 12.7011C7.48413 12.6297 7.59083 12.5299 7.67024 12.4015C7.74965 12.2778 7.7894 12.14 7.7894 11.9878C7.7894 11.7596 7.69761 11.5575 7.51395 11.3816L2.28758 6.49584L7.51395 1.61012C7.69761 1.43412 7.7894 1.23446 7.7894 1.01096C7.7894 0.854076 7.74965 0.713783 7.67024 0.590162C7.59083 0.466541 7.48413 0.369027 7.35016 0.297701C7.22106 0.221658 7.0747 0.183594 6.91091 0.183594C6.67268 0.183594 6.46914 0.262077 6.30039 0.418961L0.500806 5.85391C0.401522 5.94898 0.327082 6.04886 0.277482 6.15345C0.232766 6.25804 0.210449 6.37222 0.210449 6.49584Z" fill="black"/>
</svg>
