<svg width="32" height="33" viewBox="0 0 32 33" fill="none" xmlns="http://www.w3.org/2000/svg">
<path d="M16.0001 18.3658L9.46673 24.8991C9.22229 25.1435 8.91118 25.2658 8.5334 25.2658C8.15562 25.2658 7.84451 25.1435 7.60006 24.8991C7.35562 24.6546 7.2334 24.3435 7.2334 23.9658C7.2334 23.588 7.35562 23.2769 7.60006 23.0324L14.1334 16.4991L7.60006 9.96575C7.35562 9.72131 7.2334 9.4102 7.2334 9.03242C7.2334 8.65464 7.35562 8.34353 7.60006 8.09909C7.84451 7.85464 8.15562 7.73242 8.5334 7.73242C8.91118 7.73242 9.22229 7.85464 9.46673 8.09909L16.0001 14.6324L22.5334 8.09909C22.7778 7.85464 23.089 7.73242 23.4667 7.73242C23.8445 7.73242 24.1556 7.85464 24.4001 8.09909C24.6445 8.34353 24.7667 8.65464 24.7667 9.03242C24.7667 9.4102 24.6445 9.72131 24.4001 9.96575L17.8667 16.4991L24.4001 23.0324C24.6445 23.2769 24.7667 23.588 24.7667 23.9658C24.7667 24.3435 24.6445 24.6546 24.4001 24.8991C24.1556 25.1435 23.8445 25.2658 23.4667 25.2658C23.089 25.2658 22.7778 25.1435 22.5334 24.8991L16.0001 18.3658Z" fill="#797979"/>
</svg>
