<svg width="33" height="33" viewBox="0 0 33 33" fill="none" xmlns="http://www.w3.org/2000/svg">
<g clip-path="url(#clip0_204_2116)">
<path d="M22.0769 13.1538V8.69231M2 25.4231L7.452 29.9649C8.25345 30.6333 9.26383 30.9995 10.3074 31H24.6802C25.7064 31 26.5385 30.1679 26.5385 29.1418C26.5385 27.0895 24.8743 25.4231 22.8198 25.4231H12.8282M22.0769 19.8462C24.4435 19.8462 26.7131 18.906 28.3865 17.2326C30.0599 15.5592 31 13.2896 31 10.9231C31 8.55653 30.0599 6.28691 28.3865 4.61351C26.7131 2.94011 24.4435 2 22.0769 2C19.7104 2 17.4408 2.94011 15.7674 4.61351C14.094 6.28691 13.1538 8.55653 13.1538 10.9231C13.1538 13.2896 14.094 15.5592 15.7674 17.2326C17.4408 18.906 19.7104 19.8462 22.0769 19.8462Z" stroke="white" stroke-width="2.28571" stroke-linecap="round" stroke-linejoin="round"/>
<path d="M8.69231 23.1922L10.3654 24.8652C10.8091 25.309 11.4109 25.5582 12.0385 25.5582C12.666 25.5582 13.2678 25.309 13.7115 24.8652C14.1553 24.4215 14.4045 23.8197 14.4045 23.1922C14.4045 22.5646 14.1553 21.9628 13.7115 21.5191L11.1149 18.9225C10.2784 18.0857 9.14379 17.6155 7.96062 17.6152H2" stroke="white" stroke-width="2.28571" stroke-linecap="round" stroke-linejoin="round"/>
</g>
<defs>
<clipPath id="clip0_204_2116">
<rect width="32" height="32" fill="white" transform="translate(0.5 0.5)"/>
</clipPath>
</defs>
</svg>
