<svg width="33" height="33" viewBox="0 0 33 33" fill="none" xmlns="http://www.w3.org/2000/svg">
<path d="M4.70937 15.166C3.51807 16.9884 2.99023 19.1652 3.21453 21.3308C3.43883 23.4964 4.4016 25.5188 5.9411 27.0583C7.4806 28.5978 9.50302 29.5606 11.6686 29.7849C13.8342 30.0092 16.011 29.4813 17.8334 28.29M19.1667 24.4993C21.9957 24.4993 24.7088 23.3755 26.7092 21.3752C28.7096 19.3748 29.8334 16.6617 29.8334 13.8327C29.8334 11.0037 28.7096 8.2906 26.7092 6.29021C24.7088 4.28982 21.9957 3.16602 19.1667 3.16602C16.3377 3.16602 13.6246 4.28982 11.6242 6.29021C9.62384 8.2906 8.50003 11.0037 8.50003 13.8327C8.50003 16.6617 9.62384 19.3748 11.6242 21.3752C13.6246 23.3755 16.3377 24.4993 19.1667 24.4993Z" stroke="white" stroke-width="2" stroke-linecap="round" stroke-linejoin="round"/>
<path d="M21.528 11.4386C21.24 10.2226 19.7734 9.12524 18.012 9.94524C16.2507 10.7666 15.9707 13.4092 18.6347 13.6892C19.8387 13.8159 20.624 13.5426 21.3414 14.3172C22.0614 15.0919 22.1947 17.2479 20.3574 17.8292C18.52 18.4106 16.7014 17.5026 16.5027 16.2132M19.148 8.50391V9.66391M19.148 18.0079V19.1706" stroke="white" stroke-width="2" stroke-linecap="round" stroke-linejoin="round"/>
</svg>
