<svg width="32" height="33" viewBox="0 0 32 33" fill="none" xmlns="http://www.w3.org/2000/svg">
<path d="M12.0254 12.499C11.8893 10.7333 12.2973 8.96828 13.1946 7.44148C14.0919 5.91468 15.4354 4.69941 17.0443 3.95925C18.6531 3.2191 20.4501 2.98958 22.1934 3.30159C23.9366 3.61361 25.5424 4.45218 26.7947 5.70443C28.0469 6.95668 28.8855 8.56251 29.1975 10.3058C29.5095 12.049 29.28 13.846 28.5399 15.4549C27.7997 17.0637 26.5844 18.4072 25.0576 19.3045C23.5308 20.2018 21.7658 20.6099 20.0001 20.4737" stroke="white" stroke-width="2" stroke-linecap="round" stroke-linejoin="round"/>
<path d="M29.3334 23.166C29.3334 24.2269 28.912 25.2443 28.1618 25.9944C27.4117 26.7446 26.3943 27.166 25.3334 27.166H22.6667M22.6667 27.166L25.3334 24.4993M22.6667 27.166L25.3334 29.8327M2.66675 9.83268C2.66675 8.77182 3.08818 7.7544 3.83832 7.00426C4.58847 6.25411 5.60588 5.83268 6.66675 5.83268H9.33341M9.33341 5.83268L6.66675 8.49935M9.33341 5.83268L6.66675 3.16602M11.3334 29.8327C9.03487 29.8327 6.83047 28.9196 5.20516 27.2943C3.57984 25.669 2.66675 23.4646 2.66675 21.166C2.66675 18.8675 3.57984 16.6631 5.20516 15.0378C6.83047 13.4124 9.03487 12.4993 11.3334 12.4993C13.632 12.4993 15.8364 13.4124 17.4617 15.0378C19.087 16.6631 20.0001 18.8675 20.0001 21.166C20.0001 23.4646 19.087 25.669 17.4617 27.2943C15.8364 28.9196 13.632 29.8327 11.3334 29.8327Z" stroke="white" stroke-width="2" stroke-linecap="round" stroke-linejoin="round"/>
</svg>
