<svg width="180" height="181" viewBox="0 0 180 181" fill="#fff" xmlns="http://www.w3.org/2000/svg">
<path d="M90 144.832C71.25 144.832 54.675 135.232 45 120.832C45.225 105.832 75 97.582 90 97.582C105 97.582 134.775 105.832 135 120.832C130.043 128.216 123.345 134.267 115.498 138.453C107.65 142.638 98.8938 144.829 90 144.832ZM90 38.332C95.9674 38.332 101.69 40.7026 105.91 44.9221C110.129 49.1417 112.5 54.8647 112.5 60.832C112.5 66.7994 110.129 72.5224 105.91 76.7419C101.69 80.9615 95.9674 83.332 90 83.332C84.0326 83.332 78.3097 80.9615 74.0901 76.7419C69.8705 72.5224 67.5 66.7994 67.5 60.832C67.5 54.8647 69.8705 49.1417 74.0901 44.9221C78.3097 40.7026 84.0326 38.332 90 38.332ZM90 15.832C80.1509 15.832 70.3982 17.772 61.2987 21.5411C52.1993 25.3102 43.9314 30.8346 36.967 37.799C22.9018 51.8643 15 70.9408 15 90.832C15 110.723 22.9018 129.8 36.967 143.865C43.9314 150.829 52.1993 156.354 61.2987 160.123C70.3982 163.892 80.1509 165.832 90 165.832C109.891 165.832 128.968 157.93 143.033 143.865C157.098 129.8 165 110.723 165 90.832C165 49.357 131.25 15.832 90 15.832Z" fill="#004AAC"/>
</svg>
