<svg width="5" height="21" viewBox="0 0 5 21" fill="none" xmlns="http://www.w3.org/2000/svg">
  <path d="M0.77002 2.49898C0.77002 2.22098 0.770019 2.08098 0.786689 1.96498C0.840038 1.59905 1.01615 1.25976 1.28835 0.998491C1.56056 0.737218 1.91404 0.568184 2.29528 0.516977C2.41822 0.500977 2.562 0.500977 2.85163 0.500977C3.14126 0.500977 3.2892 0.500977 3.40798 0.516977C3.78922 0.568184 4.1427 0.737218 4.41491 0.998491C4.68711 1.25976 4.86322 1.59905 4.91657 1.96498C4.93324 2.08098 4.93324 2.22098 4.93324 2.49898C4.93324 2.77698 4.93324 2.91698 4.91657 3.03298C4.86322 3.39891 4.68711 3.73819 4.41491 3.99946C4.1427 4.26073 3.78922 4.42977 3.40798 4.48098C3.28712 4.49698 3.14126 4.49698 2.85163 4.49698C2.562 4.49698 2.41614 4.49698 2.29528 4.48098C1.91404 4.42977 1.56056 4.26073 1.28835 3.99946C1.01615 3.73819 0.840038 3.39891 0.786689 3.03298C0.770019 2.91698 0.77002 2.77698 0.77002 2.49898ZM0.77002 10.499C0.77002 10.221 0.770019 10.081 0.786689 9.96498C0.840038 9.59905 1.01615 9.25976 1.28835 8.99849C1.56056 8.73722 1.91404 8.56818 2.29528 8.51698C2.41822 8.50098 2.562 8.50098 2.85163 8.50098C3.14126 8.50098 3.2892 8.50098 3.40798 8.51698C3.78922 8.56818 4.1427 8.73722 4.41491 8.99849C4.68711 9.25976 4.86322 9.59905 4.91657 9.96498C4.93324 10.081 4.93324 10.221 4.93324 10.499C4.93324 10.777 4.93324 10.917 4.91657 11.033C4.86322 11.3989 4.68711 11.7382 4.41491 11.9995C4.1427 12.2607 3.78922 12.4298 3.40798 12.481C3.28712 12.497 3.14126 12.497 2.85163 12.497C2.562 12.497 2.41614 12.497 2.29528 12.481C1.91404 12.4298 1.56056 12.2607 1.28835 11.9995C1.01615 11.7382 0.840038 11.3989 0.786689 11.033C0.770019 10.917 0.77002 10.777 0.77002 10.499ZM0.77002 18.499C0.77002 18.221 0.770019 18.081 0.786689 17.965C0.840038 17.599 1.01615 17.2598 1.28835 16.9985C1.56056 16.7372 1.91404 16.5682 2.29528 16.517C2.41822 16.501 2.562 16.501 2.85163 16.501C3.14126 16.501 3.2892 16.501 3.40798 16.517C3.78922 16.5682 4.1427 16.7372 4.41491 16.9985C4.68711 17.2598 4.86322 17.599 4.91657 17.965C4.93324 18.081 4.93324 18.221 4.93324 18.499C4.93324 18.777 4.93324 18.917 4.91657 19.035C4.86322 19.4009 4.68711 19.7402 4.41491 20.0015C4.1427 20.2627 3.78922 20.4318 3.40798 20.483C3.28712 20.499 3.14126 20.499 2.85371 20.499C2.56616 20.499 2.41822 20.499 2.29737 20.483C1.91612 20.4318 1.56264 20.2627 1.29044 20.0015C1.01823 19.7402 0.842122 19.4009 0.788772 19.035C0.770019 18.919 0.77002 18.779 0.77002 18.499Z" fill="black" />
</svg>
