<svg width="17" height="17" viewBox="0 0 17 17" fill="none" xmlns="http://www.w3.org/2000/svg">
<path d="M8.88672 16.8135C13.305 16.8135 16.8867 13.2318 16.8867 8.81348C16.8867 4.3952 13.305 0.813477 8.88672 0.813477C4.46844 0.813477 0.886719 4.3952 0.886719 8.81348C0.886719 13.2318 4.46844 16.8135 8.88672 16.8135Z" fill="#627EEA"/>
<path d="M9.13574 2.81348V7.24848L12.8842 8.92348L9.13574 2.81348Z" fill="white"/>
<path d="M9.13572 2.81348L5.38672 8.92348L9.13572 7.24848V2.81348Z" fill="white"/>
<path d="M9.13574 11.7981V14.8116L12.8867 9.62207L9.13574 11.7981Z" fill="white"/>
<path d="M9.13572 14.8116V11.7976L5.38672 9.62207L9.13572 14.8116Z" fill="white"/>
<path d="M9.13574 11.0995L12.8842 8.92302L9.13574 7.24902V11.0995Z" fill="white"/>
<path d="M5.38672 8.92302L9.13572 11.0995V7.24902L5.38672 8.92302Z" fill="white"/>
</svg>
