<svg width="31" height="21" viewBox="0 0 31 21" fill="none" xmlns="http://www.w3.org/2000/svg">
<path d="M15.3518 6.14776C14.291 6.14776 13.2737 6.56913 12.5237 7.31919C11.7736 8.06925 11.3522 9.08656 11.3522 10.1473C11.3522 11.208 11.7736 12.2253 12.5237 12.9754C13.2737 13.7255 14.291 14.1468 15.3518 14.1468C16.4125 14.1468 17.4298 13.7255 18.1799 12.9754C18.9299 12.2253 19.3513 11.208 19.3513 10.1473C19.3513 9.08656 18.9299 8.06925 18.1799 7.31919C17.4298 6.56913 16.4125 6.14776 15.3518 6.14776ZM15.3518 16.8132C13.5839 16.8132 11.8884 16.1109 10.6383 14.8608C9.38816 13.6107 8.68586 11.9152 8.68586 10.1473C8.68586 8.37939 9.38816 6.68389 10.6383 5.43379C11.8884 4.18369 13.5839 3.48139 15.3518 3.48139C17.1197 3.48139 18.8152 4.18369 20.0653 5.43379C21.3154 6.68389 22.0177 8.37939 22.0177 10.1473C22.0177 11.9152 21.3154 13.6107 20.0653 14.8608C18.8152 16.1109 17.1197 16.8132 15.3518 16.8132ZM15.3518 0.148438C8.68586 0.148438 2.99317 4.29463 0.686768 10.1473C2.99317 16 8.68586 20.1462 15.3518 20.1462C22.0177 20.1462 27.7104 16 30.0168 10.1473C27.7104 4.29463 22.0177 0.148438 15.3518 0.148438Z" fill="black"/>
</svg>
