<svg width="25" height="25" viewBox="0 0 25 25" fill="none" xmlns="http://www.w3.org/2000/svg">
<path d="M7.25 8C10.0114 8 12.25 6.88071 12.25 5.5C12.25 4.11929 10.0114 3 7.25 3C4.48858 3 2.25 4.11929 2.25 5.5C2.25 6.88071 4.48858 8 7.25 8Z" stroke="black" stroke-width="1.5" stroke-linecap="round" stroke-linejoin="round"/>
<path d="M2.25 5.5C2.25 5.5 2.25 7.6193 2.25 9C2.25 10.3807 4.48857 11.5 7.25 11.5C10.0114 11.5 12.25 10.3807 12.25 9C12.25 8.1822 12.25 5.5 12.25 5.5" stroke="black" stroke-width="1.5" stroke-linecap="round" stroke-linejoin="round"/>
<path d="M2.25 9C2.25 9 2.25 11.1193 2.25 12.5C2.25 13.8807 4.48857 15 7.25 15C10.0114 15 12.25 13.8807 12.25 12.5C12.25 11.6822 12.25 9 12.25 9" stroke="black" stroke-width="1.5" stroke-linecap="round" stroke-linejoin="round"/>
<path d="M2.25 12.5C2.25 12.5 2.25 14.6193 2.25 16C2.25 17.3807 4.48857 18.5 7.25 18.5C10.0114 18.5 12.25 17.3807 12.25 16C12.25 15.1822 12.25 12.5 12.25 12.5" stroke="black" stroke-width="1.5" stroke-linecap="round" stroke-linejoin="round"/>
<path d="M2.25 16C2.25 16 2.25 18.1193 2.25 19.5C2.25 20.8807 4.48857 22 7.25 22C10.0114 22 12.25 20.8807 12.25 19.5C12.25 18.6822 12.25 16 12.25 16" stroke="black" stroke-width="1.5" stroke-linecap="round" stroke-linejoin="round"/>
<path d="M17.25 15C20.0114 15 22.25 13.8807 22.25 12.5C22.25 11.1193 20.0114 10 17.25 10C14.4886 10 12.25 11.1193 12.25 12.5C12.25 13.8807 14.4886 15 17.25 15Z" stroke="black" stroke-width="1.5" stroke-linecap="round" stroke-linejoin="round"/>
<path d="M12.25 12.5C12.25 12.5 12.25 14.6193 12.25 16C12.25 17.3807 14.4886 18.5 17.25 18.5C20.0114 18.5 22.25 17.3807 22.25 16C22.25 15.1822 22.25 12.5 22.25 12.5" stroke="black" stroke-width="1.5" stroke-linecap="round" stroke-linejoin="round"/>
<path d="M12.25 16C12.25 16 12.25 18.1193 12.25 19.5C12.25 20.8807 14.4886 22 17.25 22C20.0114 22 22.25 20.8807 22.25 19.5C22.25 18.6822 22.25 16 22.25 16" stroke="black" stroke-width="1.5" stroke-linecap="round" stroke-linejoin="round"/>
</svg>
