<svg width="25" height="25" viewBox="0 0 25 25" fill="none" xmlns="http://www.w3.org/2000/svg">
<path d="M12.75 1.5C7.75 1.5 3.75 5.5 3.75 10.5V17.5C3.75 18.2956 4.06607 19.0587 4.62868 19.6213C5.19129 20.1839 5.95435 20.5 6.75 20.5H9.75V12.5H5.75V10.5C5.75 8.64348 6.4875 6.86301 7.80025 5.55025C9.11301 4.2375 10.8935 3.5 12.75 3.5C14.6065 3.5 16.387 4.2375 17.6997 5.55025C19.0125 6.86301 19.75 8.64348 19.75 10.5V12.5H15.75V20.5H19.75V21.5H12.75V23.5H18.75C19.5456 23.5 20.3087 23.1839 20.8713 22.6213C21.4339 22.0587 21.75 21.2956 21.75 20.5V10.5C21.75 5.5 17.72 1.5 12.75 1.5Z" fill="#004AAC"/>
</svg>
