<svg width="92" height="95" viewBox="0 0 92 95" fill="none" xmlns="http://www.w3.org/2000/svg">
<path d="M78.3032 37.3133H10.3876C7.10819 37.3133 4.44971 34.6548 4.44971 31.3754C4.44971 28.096 7.10819 25.4375 10.3876 25.4375H78.3032V37.3133Z" fill="#F0F5FA"/>
<path d="M70.9592 25.4375H78.3031V37.3133H70.9592V25.4375Z" fill="#E4ECF2"/>
<path d="M14.5549 38.6924H87.1166V51.2752H14.5549V38.6924Z" fill="#677A8F"/>
<path d="M79.7727 38.6914H87.1166V51.2742H79.7727V38.6914Z" fill="#5C6D80"/>
<path d="M21.0444 38.6914H37.9028V51.2742H21.0444V38.6914Z" fill="#FFE7B3"/>
<path d="M44.2852 38.6914H51.9637V51.2742H44.2852V38.6914Z" fill="#FFE7B3"/>
<path d="M9.84229 52.6504H72.5887C77.828 52.6504 82.0751 56.8946 82.0751 62.1302C82.0751 67.3659 77.828 71.6101 72.5887 71.6101H9.84229V52.6504Z" fill="#F0F5FA"/>
<path d="M72.5883 52.6504H65.2444C70.4835 52.6504 74.7308 56.8946 74.7308 62.1302C74.7308 67.3659 70.4835 71.6101 65.2444 71.6101H72.5883C77.8274 71.6101 82.0747 67.3659 82.0747 62.1302C82.0747 56.8946 77.8274 52.6504 72.5883 52.6504Z" fill="#E4ECF2"/>
<path d="M72.5883 72.9872H5.04836C4.2879 72.9872 3.67139 72.3709 3.67139 71.6103C3.67139 70.8496 4.2879 70.2333 5.04836 70.2333H72.5885C77.06 70.2333 80.698 66.5984 80.698 62.1304C80.698 57.6624 77.0602 54.0274 72.5885 54.0274H5.04836C4.2879 54.0274 3.67139 53.4111 3.67139 52.6504C3.67139 51.8898 4.2879 51.2734 5.04836 51.2734H72.5885C78.5785 51.2734 83.4519 56.1437 83.4519 62.1304C83.4517 68.117 78.5783 72.9872 72.5883 72.9872Z" fill="#87DDF5"/>
<path d="M9.84229 63.7686H64.3841C65.1448 63.7686 65.7611 64.3849 65.7611 65.1455C65.7611 65.9062 65.1448 66.5225 64.3841 66.5225H9.84229V63.7686Z" fill="#C5D7E6"/>
<path d="M9.84253 58.1182H44.2704C45.0309 58.1182 45.6474 58.7345 45.6474 59.4951C45.6474 60.2558 45.0309 60.8721 44.2704 60.8721H9.84253V58.1182Z" fill="#C5D7E6"/>
<path d="M82.1119 38.6953H10.3866C6.3532 38.6953 3.07178 35.4139 3.07178 31.3803C3.07178 27.3469 6.3532 24.0654 10.3866 24.0654H82.1119C82.8725 24.0654 83.4888 24.6818 83.4888 25.4424C83.4888 26.203 82.8725 26.8194 82.1119 26.8194H10.3866C7.87173 26.8194 5.82573 28.8654 5.82573 31.3803C5.82573 33.8952 7.87173 35.9414 10.3866 35.9414H82.1119C82.8725 35.9414 83.4888 36.5577 83.4888 37.3184C83.4888 38.079 82.8725 38.6953 82.1119 38.6953Z" fill="#34A853"/>
<path d="M78.3027 32.754H25.8062C25.0457 32.754 24.4292 32.1376 24.4292 31.377C24.4292 30.6163 25.0457 30 25.8062 30H78.3027V32.754Z" fill="#C5D7E6"/>
<path d="M24.1738 72.9863H91.3864V94.7515H24.1738V72.9863Z" fill="#34A853"/>
<path d="M84.0427 72.9863H91.3866V94.7515H84.0427V72.9863Z" fill="#FAC800"/>
<path d="M37.1223 87.5246H79.9263C81.9449 87.5246 83.5813 85.8882 83.5813 83.8696V83.8679C83.5813 81.8493 81.9449 80.2129 79.9263 80.2129H37.1223C35.1037 80.2129 33.4673 81.8493 33.4673 83.8679V83.8696C33.4673 85.8882 35.1037 87.5246 37.1223 87.5246Z" fill="#004AAC"/>
<path d="M0.138916 73.0068H26.2356V94.7282H0.138916V73.0068Z" fill="#004AAC"/>
<path d="M6.62576 88.9014C5.8653 88.9014 5.24878 88.2851 5.24878 87.5245V80.2129C5.24878 79.4523 5.8653 78.8359 6.62576 78.8359C7.38621 78.8359 8.00273 79.4523 8.00273 80.2129V87.5245C8.00273 88.2849 7.38621 88.9014 6.62576 88.9014Z" fill="white"/>
<path d="M13.0135 88.9014C12.253 88.9014 11.6365 88.2851 11.6365 87.5245V80.2129C11.6365 79.4523 12.253 78.8359 13.0135 78.8359C13.7739 78.8359 14.3904 79.4523 14.3904 80.2129V87.5245C14.3904 88.2849 13.7739 88.9014 13.0135 88.9014Z" fill="white"/>
<path d="M19.4009 88.9014C18.6404 88.9014 18.0239 88.2851 18.0239 87.5245V80.2129C18.0239 79.4523 18.6404 78.8359 19.4009 78.8359C20.1614 78.8359 20.7779 79.4523 20.7779 80.2129V87.5245C20.7779 88.2849 20.1614 88.9014 19.4009 88.9014Z" fill="white"/>
<path d="M49.2509 17.1526C48.8932 17.1526 48.5358 17.0142 48.2661 16.7382L45.8459 14.2626C43.7913 12.2082 40.4307 12.2085 38.3651 14.2738C38.3562 14.2826 38.3472 14.2914 38.3381 14.3001L36.3053 16.2247C35.753 16.7476 34.8815 16.7237 34.3586 16.1717C33.8357 15.6194 33.8594 14.7479 34.4117 14.2248L36.4314 12.3123C39.5717 9.1869 44.6692 9.19149 47.8038 12.326L50.2351 14.8129C50.7668 15.3567 50.7569 16.2286 50.2131 16.7601C49.9454 17.0221 49.5981 17.1526 49.2509 17.1526Z" fill="#677A8F"/>
<path d="M25.5504 25.4377C31.9872 25.4377 37.2053 20.2197 37.2053 13.7828C37.2053 7.34601 31.9872 2.12793 25.5504 2.12793C19.1136 2.12793 13.8955 7.34601 13.8955 13.7828C13.8955 20.2197 19.1136 25.4377 25.5504 25.4377Z" fill="#87DDF5"/>
<path d="M25.5506 2.12793C24.2671 2.12793 23.0335 2.33833 21.8787 2.72168C26.5156 4.26041 29.8616 8.62946 29.8616 13.7828C29.8616 18.9362 26.5156 23.3055 21.8787 24.8442C23.0335 25.2273 24.2671 25.4379 25.5506 25.4379C31.9875 25.4379 37.2055 20.2197 37.2055 13.783C37.2055 7.34612 31.9875 2.12793 25.5506 2.12793Z" fill="#64D5F5"/>
<path d="M25.5507 26.8159C18.3649 26.8159 12.5188 20.9698 12.5188 13.784C12.5188 6.59823 18.3649 0.751953 25.5507 0.751953C32.7365 0.751953 38.5826 6.59804 38.5826 13.7838C38.5826 20.9696 32.7365 26.8159 25.5507 26.8159ZM25.5507 3.50591C19.8834 3.50591 15.2728 8.11657 15.2728 13.7838C15.2728 19.4511 19.8834 24.0618 25.5507 24.0618C31.218 24.0618 35.8286 19.4511 35.8286 13.7838C35.8286 8.11657 31.218 3.50591 25.5507 3.50591Z" fill="#677A8F"/>
<path d="M25.5503 21.8588C24.7899 21.8588 24.1733 21.2425 24.1733 20.4818C24.1733 19.7212 24.7899 19.1048 25.5503 19.1048C28.4842 19.1048 30.8711 16.7179 30.8711 13.7842C30.8711 13.0236 31.4877 12.4072 32.2481 12.4072C33.0086 12.4072 33.6251 13.0236 33.6251 13.7842C33.6251 18.2364 30.0027 21.8588 25.5503 21.8588Z" fill="white"/>
<path d="M58.6715 25.4377C65.1083 25.4377 70.3264 20.2197 70.3264 13.7828C70.3264 7.34601 65.1083 2.12793 58.6715 2.12793C52.2347 2.12793 47.0166 7.34601 47.0166 13.7828C47.0166 20.2197 52.2347 25.4377 58.6715 25.4377Z" fill="#87DDF5"/>
<path d="M58.6714 2.12793C57.3879 2.12793 56.1543 2.33833 54.9995 2.72168C59.6364 4.26041 62.9825 8.62946 62.9825 13.7828C62.9825 18.9362 59.6364 23.3055 54.9995 24.8442C56.1543 25.2273 57.3879 25.4379 58.6714 25.4379C65.1083 25.4379 70.3264 20.2197 70.3264 13.783C70.3264 7.34612 65.1083 2.12793 58.6714 2.12793Z" fill="#64D5F5"/>
<path d="M58.6715 26.8149C51.4856 26.8149 45.6396 20.9688 45.6396 13.783C45.6396 6.59725 51.4856 0.750977 58.6715 0.750977C65.8575 0.750977 71.7034 6.59707 71.7034 13.7829C71.7034 20.9687 65.8573 26.8149 58.6715 26.8149ZM58.6715 3.50493C53.0043 3.50493 48.3936 8.1156 48.3936 13.7829C48.3936 19.4501 53.0043 24.0608 58.6715 24.0608C64.3388 24.0608 68.9495 19.4501 68.9495 13.7829C68.9495 8.1156 64.3388 3.50493 58.6715 3.50493Z" fill="#677A8F"/>
<path d="M58.6714 21.8588C57.9108 21.8588 57.2944 21.2425 57.2944 20.4818C57.2944 19.7212 57.9108 19.1048 58.6714 19.1048C61.6053 19.1048 63.9922 16.7179 63.9922 13.7842C63.9922 13.0236 64.6086 12.4072 65.3692 12.4072C66.1298 12.4072 66.7462 13.0236 66.7462 13.7842C66.7462 18.2364 63.1238 21.8588 58.6714 21.8588Z" fill="white"/>
</svg>
