<svg width="92" height="95" viewBox="0 0 92 95" fill="none" xmlns="http://www.w3.org/2000/svg">
  <path d="M78.3032 37.3753H10.3876C7.10819 37.3753 4.44971 34.7168 4.44971 31.4374C4.44971 28.158 7.10819 25.4995 10.3876 25.4995H78.3032V37.3753Z" fill="#F0F5FA" />
  <path d="M70.9592 25.4995H78.3031V37.3753H70.9592V25.4995Z" fill="#E4ECF2" />
  <path d="M14.5549 38.7539H87.1166V51.3367H14.5549V38.7539Z" fill="#677A8F" />
  <path d="M79.7727 38.7529H87.1166V51.3357H79.7727V38.7529Z" fill="#5C6D80" />
  <path d="M21.0444 38.7529H37.9028V51.3357H21.0444V38.7529Z" fill="#FFE7B3" />
  <path d="M44.2852 38.7529H51.9637V51.3357H44.2852V38.7529Z" fill="#FFE7B3" />
  <path d="M9.84229 52.7119H72.5887C77.828 52.7119 82.0751 56.9561 82.0751 62.1917C82.0751 67.4274 77.828 71.6716 72.5887 71.6716H9.84229V52.7119Z" fill="#F0F5FA" />
  <path d="M72.5883 52.7119H65.2444C70.4835 52.7119 74.7308 56.9561 74.7308 62.1917C74.7308 67.4274 70.4835 71.6716 65.2444 71.6716H72.5883C77.8274 71.6716 82.0747 67.4274 82.0747 62.1917C82.0747 56.9561 77.8274 52.7119 72.5883 52.7119Z" fill="#E4ECF2" />
  <path d="M72.5883 73.0488H5.04836C4.2879 73.0488 3.67139 72.4324 3.67139 71.6718C3.67139 70.9112 4.2879 70.2948 5.04836 70.2948H72.5885C77.06 70.2948 80.698 66.66 80.698 62.192C80.698 57.7239 77.0602 54.0889 72.5885 54.0889H5.04836C4.2879 54.0889 3.67139 53.4726 3.67139 52.7119C3.67139 51.9513 4.2879 51.335 5.04836 51.335H72.5885C78.5785 51.335 83.4519 56.2052 83.4519 62.192C83.4517 68.1785 78.5783 73.0488 72.5883 73.0488Z" fill="#87DDF5" />
  <path d="M9.84229 63.8306H64.3841C65.1448 63.8306 65.7611 64.4469 65.7611 65.2075C65.7611 65.9682 65.1448 66.5845 64.3841 66.5845H9.84229V63.8306Z" fill="#C5D7E6" />
  <path d="M9.84253 58.1797H44.2704C45.0309 58.1797 45.6474 58.796 45.6474 59.5567C45.6474 60.3173 45.0309 60.9336 44.2704 60.9336H9.84253V58.1797Z" fill="#C5D7E6" />
  <path d="M82.1119 38.7569H10.3866C6.3532 38.7569 3.07178 35.4754 3.07178 31.4418C3.07178 27.4084 6.3532 24.127 10.3866 24.127H82.1119C82.8725 24.127 83.4888 24.7433 83.4888 25.5039C83.4888 26.2646 82.8725 26.8809 82.1119 26.8809H10.3866C7.87173 26.8809 5.82573 28.9269 5.82573 31.4418C5.82573 33.9567 7.87173 36.0029 10.3866 36.0029H82.1119C82.8725 36.0029 83.4888 36.6193 83.4888 37.3799C83.4888 38.1405 82.8725 38.7569 82.1119 38.7569Z" fill="#FFDA45" />
  <path d="M78.3027 32.8155H25.8062C25.0457 32.8155 24.4292 32.1991 24.4292 31.4385C24.4292 30.6779 25.0457 30.0615 25.8062 30.0615H78.3027V32.8155Z" fill="#C5D7E6" />
  <path d="M24.1738 73.0483H91.3864V94.8136H24.1738V73.0483Z" fill="#FFDA45" />
  <path d="M84.0427 73.0479H91.3866V94.8131H84.0427V73.0479Z" fill="#FAC800" />
  <path d="M37.1223 87.5866H79.9263C81.9449 87.5866 83.5813 85.9502 83.5813 83.9316V83.93C83.5813 81.9113 81.9449 80.2749 79.9263 80.2749H37.1223C35.1037 80.2749 33.4673 81.9113 33.4673 83.93V83.9316C33.4673 85.9502 35.1037 87.5866 37.1223 87.5866Z" fill="#FFA400" />
  <path d="M0.138916 73.0684H26.2356V94.7897H0.138916V73.0684Z" fill="#FFA400" />
  <path d="M6.62576 88.963C5.8653 88.963 5.24878 88.3466 5.24878 87.586V80.2744C5.24878 79.5138 5.8653 78.8975 6.62576 78.8975C7.38621 78.8975 8.00273 79.5138 8.00273 80.2744V87.586C8.00273 88.3465 7.38621 88.963 6.62576 88.963Z" fill="white" />
  <path d="M13.0135 88.963C12.253 88.963 11.6365 88.3466 11.6365 87.586V80.2744C11.6365 79.5138 12.253 78.8975 13.0135 78.8975C13.7739 78.8975 14.3904 79.5138 14.3904 80.2744V87.586C14.3904 88.3465 13.7739 88.963 13.0135 88.963Z" fill="white" />
  <path d="M19.4009 88.963C18.6404 88.963 18.0239 88.3466 18.0239 87.586V80.2744C18.0239 79.5138 18.6404 78.8975 19.4009 78.8975C20.1614 78.8975 20.7779 79.5138 20.7779 80.2744V87.586C20.7779 88.3465 20.1614 88.963 19.4009 88.963Z" fill="white" />
  <path d="M49.2509 17.2136C48.8932 17.2136 48.5358 17.0752 48.2661 16.7993L45.8459 14.3237C43.7913 12.2692 40.4307 12.2696 38.3651 14.3349C38.3562 14.3437 38.3472 14.3525 38.3381 14.3611L36.3053 16.2858C35.753 16.8086 34.8815 16.7848 34.3586 16.2327C33.8357 15.6804 33.8594 14.8089 34.4117 14.2858L36.4314 12.3733C39.5717 9.24794 44.6692 9.25253 47.8038 12.3871L50.2351 14.8739C50.7668 15.4177 50.7569 16.2896 50.2131 16.8211C49.9454 17.0831 49.5981 17.2136 49.2509 17.2136Z" fill="#677A8F" />
  <path d="M25.5504 25.4993C31.9872 25.4993 37.2053 20.2812 37.2053 13.8444C37.2053 7.40753 31.9872 2.18945 25.5504 2.18945C19.1136 2.18945 13.8955 7.40753 13.8955 13.8444C13.8955 20.2812 19.1136 25.4993 25.5504 25.4993Z" fill="#87DDF5" />
  <path d="M25.5506 2.18945C24.2671 2.18945 23.0335 2.39986 21.8787 2.78321C26.5156 4.32193 29.8616 8.69098 29.8616 13.8444C29.8616 18.9977 26.5156 23.367 21.8787 24.9057C23.0335 25.2889 24.2671 25.4995 25.5506 25.4995C31.9875 25.4995 37.2055 20.2813 37.2055 13.8445C37.2055 7.40764 31.9875 2.18945 25.5506 2.18945Z" fill="#64D5F5" />
  <path d="M25.5507 26.8774C18.3649 26.8774 12.5188 21.0313 12.5188 13.8455C12.5188 6.65975 18.3649 0.813477 25.5507 0.813477C32.7365 0.813477 38.5826 6.65957 38.5826 13.8454C38.5826 21.0312 32.7365 26.8774 25.5507 26.8774ZM25.5507 3.56743C19.8834 3.56743 15.2728 8.1781 15.2728 13.8454C15.2728 19.5126 19.8834 24.1233 25.5507 24.1233C31.218 24.1233 35.8286 19.5126 35.8286 13.8454C35.8286 8.1781 31.218 3.56743 25.5507 3.56743Z" fill="#677A8F" />
  <path d="M25.5503 21.9203C24.7899 21.9203 24.1733 21.304 24.1733 20.5433C24.1733 19.7827 24.7899 19.1664 25.5503 19.1664C28.4842 19.1664 30.8711 16.7794 30.8711 13.8457C30.8711 13.0851 31.4877 12.4688 32.2481 12.4688C33.0086 12.4688 33.6251 13.0851 33.6251 13.8457C33.6251 18.2979 30.0027 21.9203 25.5503 21.9203Z" fill="white" />
  <path d="M58.6715 25.4993C65.1083 25.4993 70.3264 20.2812 70.3264 13.8444C70.3264 7.40753 65.1083 2.18945 58.6715 2.18945C52.2347 2.18945 47.0166 7.40753 47.0166 13.8444C47.0166 20.2812 52.2347 25.4993 58.6715 25.4993Z" fill="#87DDF5" />
  <path d="M58.6714 2.18945C57.3879 2.18945 56.1543 2.39986 54.9995 2.78321C59.6364 4.32193 62.9825 8.69098 62.9825 13.8444C62.9825 18.9977 59.6364 23.367 54.9995 24.9057C56.1543 25.2889 57.3879 25.4995 58.6714 25.4995C65.1083 25.4995 70.3264 20.2813 70.3264 13.8445C70.3264 7.40764 65.1083 2.18945 58.6714 2.18945Z" fill="#64D5F5" />
  <path d="M58.6715 26.8765C51.4856 26.8765 45.6396 21.0304 45.6396 13.8446C45.6396 6.65877 51.4856 0.8125 58.6715 0.8125C65.8575 0.8125 71.7034 6.65859 71.7034 13.8444C71.7034 21.0302 65.8573 26.8765 58.6715 26.8765ZM58.6715 3.56645C53.0043 3.56645 48.3936 8.17712 48.3936 13.8444C48.3936 19.5117 53.0043 24.1223 58.6715 24.1223C64.3388 24.1223 68.9495 19.5117 68.9495 13.8444C68.9495 8.17712 64.3388 3.56645 58.6715 3.56645Z" fill="#677A8F" />
  <path d="M58.6714 21.9203C57.9108 21.9203 57.2944 21.304 57.2944 20.5433C57.2944 19.7827 57.9108 19.1664 58.6714 19.1664C61.6053 19.1664 63.9922 16.7794 63.9922 13.8457C63.9922 13.0851 64.6086 12.4688 65.3692 12.4688C66.1298 12.4688 66.7462 13.0851 66.7462 13.8457C66.7462 18.2979 63.1238 21.9203 58.6714 21.9203Z" fill="white" />
</svg>
