<svg width="25" height="25" viewBox="0 0 25 25" fill="none" xmlns="http://www.w3.org/2000/svg">
<g clip-path="url(#clip0_204_1316)">
<path d="M24.4637 21.0094C24.4637 21.4912 24.2955 21.9003 23.9591 22.2366L22.5 23.7094C22.1455 24.0457 21.7319 24.2139 21.2591 24.2139C20.7773 24.2139 20.3682 24.0457 20.0319 23.7094L15.0819 18.7457C14.7364 18.4185 14.5637 18.0094 14.5637 17.5185C14.5637 17.0366 14.7591 16.6003 15.15 16.2094L11.6591 12.7185L9.94095 14.4366C9.81368 14.5639 9.65913 14.6276 9.47731 14.6276C9.29549 14.6276 9.14095 14.5639 9.01368 14.4366C9.03186 14.4548 9.08868 14.5094 9.18413 14.6003C9.27959 14.6912 9.3364 14.7503 9.35459 14.7776C9.37277 14.8048 9.41822 14.8571 9.49095 14.9344C9.56368 15.0116 9.60913 15.073 9.62731 15.1185C9.64549 15.1639 9.67277 15.2253 9.70913 15.3026C9.74549 15.3798 9.77049 15.4548 9.78413 15.5276C9.79777 15.6003 9.80459 15.6821 9.80459 15.773C9.80459 16.1185 9.67731 16.4276 9.42277 16.7003C9.39549 16.7276 9.32049 16.8094 9.19777 16.9457C9.07504 17.0821 8.98868 17.1753 8.93868 17.2253C8.88868 17.2753 8.80459 17.3503 8.6864 17.4503C8.56822 17.5503 8.46822 17.6207 8.3864 17.6616C8.30459 17.7026 8.20459 17.7435 8.0864 17.7844C7.96822 17.8253 7.85004 17.8457 7.73186 17.8457C7.36822 17.8457 7.05913 17.7185 6.80459 17.4639L1.24095 11.9003C0.986404 11.6457 0.859131 11.3366 0.859131 10.973C0.859131 10.8548 0.879585 10.7366 0.920494 10.6185C0.961404 10.5003 1.00231 10.4003 1.04322 10.3185C1.08413 10.2366 1.15459 10.1366 1.25459 10.0185C1.35459 9.90028 1.42959 9.81619 1.47959 9.76619C1.52959 9.71619 1.62277 9.62983 1.75913 9.5071C1.89549 9.38437 1.97731 9.30937 2.00459 9.2821C2.27731 9.02756 2.5864 8.90028 2.93186 8.90028C3.02277 8.90028 3.10459 8.9071 3.17731 8.92074C3.25004 8.93437 3.32504 8.95938 3.40231 8.99574C3.47959 9.0321 3.54095 9.05937 3.5864 9.07756C3.63186 9.09574 3.69322 9.14119 3.77049 9.21392C3.84777 9.28665 3.90004 9.3321 3.92731 9.35028C3.95459 9.36847 4.01368 9.42528 4.10459 9.52074C4.19549 9.61619 4.25004 9.67301 4.26822 9.69119C4.14095 9.56392 4.07731 9.40938 4.07731 9.22756C4.07731 9.04574 4.14095 8.89119 4.26822 8.76392L9.01368 4.01847C9.14095 3.89119 9.29549 3.82756 9.47731 3.82756C9.65913 3.82756 9.81368 3.89119 9.94095 4.01847C9.92277 4.00028 9.86595 3.94574 9.77049 3.85483C9.67504 3.76392 9.61822 3.70483 9.60004 3.67756C9.58186 3.65028 9.5364 3.59801 9.46368 3.52074C9.39095 3.44347 9.34549 3.3821 9.32731 3.33665C9.30913 3.29119 9.28186 3.22983 9.24549 3.15256C9.20913 3.07528 9.18413 3.00028 9.17049 2.92756C9.15686 2.85483 9.15004 2.77301 9.15004 2.6821C9.15004 2.33665 9.27731 2.02756 9.53186 1.75483C9.55913 1.72756 9.63413 1.64574 9.75686 1.50937C9.87959 1.37301 9.96595 1.27983 10.0159 1.22983C10.0659 1.17983 10.15 1.10483 10.2682 1.00483C10.3864 0.90483 10.4864 0.834375 10.5682 0.793466C10.65 0.752557 10.75 0.711648 10.8682 0.670739C10.9864 0.62983 11.1046 0.609375 11.2228 0.609375C11.5864 0.609375 11.8955 0.736648 12.15 0.991193L17.7137 6.55483C17.9682 6.80937 18.0955 7.11847 18.0955 7.4821C18.0955 7.60028 18.075 7.71847 18.0341 7.83665C17.9932 7.95483 17.9523 8.05483 17.9114 8.13665C17.8705 8.21847 17.8 8.31847 17.7 8.43665C17.6 8.55483 17.525 8.63892 17.475 8.68892C17.425 8.73892 17.3319 8.82528 17.1955 8.94801C17.0591 9.07074 16.9773 9.14574 16.95 9.17301C16.6773 9.42756 16.3682 9.55483 16.0228 9.55483C15.9319 9.55483 15.85 9.54801 15.7773 9.53438C15.7046 9.52074 15.6296 9.49574 15.5523 9.45938C15.475 9.42301 15.4137 9.39574 15.3682 9.37756C15.3228 9.35938 15.2614 9.31392 15.1841 9.24119C15.1069 9.16847 15.0546 9.12301 15.0273 9.10483C15 9.08665 14.9409 9.02983 14.85 8.93437C14.7591 8.83892 14.7046 8.7821 14.6864 8.76392C14.8137 8.89119 14.8773 9.04574 14.8773 9.22756C14.8773 9.40938 14.8137 9.56392 14.6864 9.69119L12.9682 11.4094L16.4591 14.9003C16.85 14.5094 17.2864 14.3139 17.7682 14.3139C18.2409 14.3139 18.6546 14.4821 19.0091 14.8185L23.9591 19.7685C24.2955 20.123 24.4637 20.5366 24.4637 21.0094Z" fill="#004AAC"/>
</g>
<defs>
<clipPath id="clip0_204_1316">
<rect width="24" height="24" fill="white" transform="translate(0.75 0.5)"/>
</clipPath>
</defs>
</svg>
