<svg width="25" height="25" viewBox="0 0 25 25" fill="none" xmlns="http://www.w3.org/2000/svg">
<path d="M6.75 22.5C6.2 22.5 5.72933 22.3043 5.338 21.913C4.94667 21.5217 4.75067 21.0507 4.75 20.5V10.5C4.75 9.95 4.946 9.47934 5.338 9.088C5.73 8.69667 6.20067 8.50067 6.75 8.5H7.75V6.5C7.75 5.11667 8.23767 3.93767 9.213 2.963C10.1883 1.98833 11.3673 1.50067 12.75 1.5C14.1327 1.49933 15.312 1.987 16.288 2.963C17.264 3.939 17.7513 5.118 17.75 6.5V8.5H18.75C19.3 8.5 19.771 8.696 20.163 9.088C20.555 9.48 20.7507 9.95067 20.75 10.5V20.5C20.75 21.05 20.5543 21.521 20.163 21.913C19.7717 22.305 19.3007 22.5007 18.75 22.5H6.75ZM12.75 17.5C13.3 17.5 13.771 17.3043 14.163 16.913C14.555 16.5217 14.7507 16.0507 14.75 15.5C14.7493 14.9493 14.5537 14.4787 14.163 14.088C13.7723 13.6973 13.3013 13.5013 12.75 13.5C12.1987 13.4987 11.728 13.6947 11.338 14.088C10.948 14.4813 10.752 14.952 10.75 15.5C10.748 16.048 10.944 16.519 11.338 16.913C11.732 17.307 12.2027 17.5027 12.75 17.5ZM9.75 8.5H15.75V6.5C15.75 5.66667 15.4583 4.95833 14.875 4.375C14.2917 3.79167 13.5833 3.5 12.75 3.5C11.9167 3.5 11.2083 3.79167 10.625 4.375C10.0417 4.95833 9.75 5.66667 9.75 6.5V8.5Z" fill="#004AAC"/>
</svg>
