<svg width="95" height="95" viewBox="0 0 95 95" fill="none" xmlns="http://www.w3.org/2000/svg">
<path d="M89.5063 27.1609C83.9154 34.5829 74.5698 36.923 68.6257 32.3741C62.6815 27.8253 61.8421 19.5719 66.997 11.7301C72.6722 3.09588 84.6398 6.22352 91.6486 1.00863C91.876 0.8258 92.149 0.708764 92.4382 0.670234C92.7274 0.631705 93.0216 0.673156 93.2888 0.790083C93.5561 0.90701 93.7862 1.09494 93.9542 1.33346C94.1221 1.57198 94.2215 1.85197 94.2415 2.143C94.6142 8.07417 94.6466 20.3222 89.5063 27.1609Z" fill="#00E979"/>
<path d="M32.828 40.1253C38.4172 47.5474 47.7628 49.8875 53.7086 45.3386C59.6543 40.7898 60.4905 32.5364 55.3291 24.6946C49.6605 16.0604 37.6928 19.188 30.684 13.9731C30.4568 13.7897 30.1837 13.6722 29.8943 13.6333C29.605 13.5945 29.3105 13.6358 29.043 13.7528C28.7756 13.8699 28.5454 14.0581 28.3775 14.2969C28.2096 14.5358 28.1106 14.8162 28.0911 15.1075C27.72 21.0387 27.6876 33.2867 32.828 40.1253Z" fill="#00E979"/>
<path d="M66.8383 59.0036C66.5146 59.0035 66.1984 58.9065 65.9304 58.7251C65.6624 58.5438 65.4548 58.2863 65.3344 57.9859C62.2295 50.2219 58.0744 47.4394 54.8009 45.8837C39.1141 38.4292 37.735 28.8227 37.6848 28.4175C37.6371 27.9952 37.7573 27.571 38.0194 27.2364C38.2815 26.9018 38.6645 26.6836 39.086 26.6287C39.5075 26.5739 39.9337 26.6868 40.2727 26.9432C40.6117 27.1996 40.8364 27.5789 40.8983 27.9994C40.921 28.1453 42.3082 36.3533 56.1946 42.957C59.5458 44.5054 62.4406 46.8928 64.5987 49.888C64.7818 42.171 67.2256 29.8161 78.6115 17.3963C78.902 17.0795 79.3065 16.8911 79.7359 16.8726C80.1653 16.8541 80.5845 17.0069 80.9013 17.2974C81.2181 17.588 81.4064 17.9924 81.425 18.4219C81.4435 18.8513 81.2907 19.2705 81.0001 19.5872C64.0218 38.0986 68.3648 56.8077 68.4118 56.9941C68.5099 57.3925 68.4532 57.8132 68.2531 58.1714C68.0531 58.5296 67.7247 58.7986 67.3342 58.9242C67.1738 58.9756 67.0066 59.0024 66.8383 59.0036Z" fill="#00DC72"/>
<path d="M32.8067 81.6911H26.3246C27.1842 81.6911 28.0086 81.3497 28.6164 80.7418C29.2242 80.134 29.5657 79.3096 29.5657 78.4501C29.5657 77.5905 29.2242 76.7661 28.6164 76.1583C28.0086 75.5505 27.1842 75.209 26.3246 75.209H3.63707C2.77748 75.209 1.9531 75.5505 1.34529 76.1583C0.737466 76.7661 0.395996 77.5905 0.395996 78.4501C0.395996 79.3096 0.737466 80.134 1.34529 80.7418C1.9531 81.3497 2.77748 81.6911 3.63707 81.6911H10.1192C9.25963 81.6911 8.43526 82.0326 7.82744 82.6404C7.21962 83.2482 6.87815 84.0726 6.87815 84.9322C6.87815 85.7918 7.21962 86.6162 7.82744 87.224C8.43526 87.8318 9.25963 88.1733 10.1192 88.1733H6.87815C6.01856 88.1733 5.19418 88.5147 4.58636 89.1226C3.97854 89.7304 3.63707 90.5548 3.63707 91.4144C3.63707 92.2739 3.97854 93.0983 4.58636 93.7061C5.19418 94.314 6.01856 94.6554 6.87815 94.6554H29.5657C30.4253 94.6554 31.2496 94.314 31.8575 93.7061C32.4653 93.0983 32.8067 92.2739 32.8067 91.4144C32.8067 90.5548 32.4653 89.7304 31.8575 89.1226C31.2496 88.5147 30.4253 88.1733 29.5657 88.1733H32.8067C33.6663 88.1733 34.4907 87.8318 35.0985 87.224C35.7064 86.6162 36.0478 85.7918 36.0478 84.9322C36.0478 84.0726 35.7064 83.2482 35.0985 82.6404C34.4907 82.0326 33.6663 81.6911 32.8067 81.6911Z" fill="#FDE05E"/>
<path d="M32.8073 81.6924H10.1197C8.32974 81.6924 6.87866 83.1435 6.87866 84.9335C6.87866 86.7235 8.32974 88.1745 10.1197 88.1745H32.8073C34.5973 88.1745 36.0483 86.7235 36.0483 84.9335C36.0483 83.1435 34.5973 81.6924 32.8073 81.6924Z" fill="#E3C84C"/>
<path d="M84.6642 81.6913H78.1821C79.0416 81.6913 79.866 81.3498 80.4738 80.742C81.0817 80.1342 81.4231 79.3098 81.4231 78.4502C81.4231 77.5906 81.0817 76.7663 80.4738 76.1584C79.866 75.5506 79.0416 75.2092 78.1821 75.2092H73.3204C74.18 75.2092 75.0044 74.8677 75.6122 74.2599C76.2201 73.652 76.5615 72.8277 76.5615 71.9681C76.5615 71.1085 76.2201 70.2841 75.6122 69.6763C75.0044 69.0685 74.18 68.727 73.3204 68.727H78.1821C79.0416 68.727 79.866 68.3855 80.4738 67.7777C81.0817 67.1699 81.4231 66.3455 81.4231 65.4859C81.4231 64.6263 81.0817 63.802 80.4738 63.1941C79.866 62.5863 79.0416 62.2448 78.1821 62.2448C79.0416 62.2448 79.866 61.9034 80.4738 61.2956C81.0817 60.6877 81.4231 59.8634 81.4231 59.0038C81.4231 58.1442 81.0817 57.3198 80.4738 56.712C79.866 56.1042 79.0416 55.7627 78.1821 55.7627H55.4945C54.6349 55.7627 53.8106 56.1042 53.2027 56.712C52.5949 57.3198 52.2535 58.1442 52.2535 59.0038C52.2535 59.8634 52.5949 60.6877 53.2027 61.2956C53.8106 61.9034 54.6349 62.2448 55.4945 62.2448C54.6349 62.2448 53.8106 62.5863 53.2027 63.1941C52.5949 63.802 52.2535 64.6263 52.2535 65.4859C52.2535 66.3455 52.5949 67.1699 53.2027 67.7777C53.8106 68.3855 54.6349 68.727 55.4945 68.727H50.6329C49.7733 68.727 48.949 69.0685 48.3411 69.6763C47.7333 70.2841 47.3918 71.1085 47.3918 71.9681C47.3918 72.8277 47.7333 73.652 48.3411 74.2599C48.949 74.8677 49.7733 75.2092 50.6329 75.2092H55.4945C54.6349 75.2092 53.8106 75.5506 53.2027 76.1584C52.5949 76.7663 52.2535 77.5906 52.2535 78.4502C52.2535 79.3098 52.5949 80.1342 53.2027 80.742C53.8106 81.3498 54.6349 81.6913 55.4945 81.6913H61.9767C61.1171 81.6913 60.2927 82.0328 59.6849 82.6406C59.0771 83.2484 58.7356 84.0728 58.7356 84.9324C58.7356 85.792 59.0771 86.6164 59.6849 87.2242C60.2927 87.832 61.1171 88.1735 61.9767 88.1735H58.7356C57.876 88.1735 57.0516 88.5149 56.4438 89.1227C55.836 89.7306 55.4945 90.5549 55.4945 91.4145C55.4945 92.2741 55.836 93.0985 56.4438 93.7063C57.0516 94.3141 57.876 94.6556 58.7356 94.6556H81.4231C82.2827 94.6556 83.1071 94.3141 83.7149 93.7063C84.3227 93.0985 84.6642 92.2741 84.6642 91.4145C84.6642 90.5549 84.3227 89.7306 83.7149 89.1227C83.1071 88.5149 82.2827 88.1735 81.4231 88.1735H84.6642C85.5238 88.1735 86.3482 87.832 86.956 87.2242C87.5638 86.6164 87.9053 85.792 87.9053 84.9324C87.9053 84.0728 87.5638 83.2484 86.956 82.6406C86.3482 82.0328 85.5238 81.6913 84.6642 81.6913Z" fill="#FDE05E"/>
<path d="M78.182 75.209H55.4945C53.7045 75.209 52.2534 76.6601 52.2534 78.4501C52.2534 80.2401 53.7045 81.6911 55.4945 81.6911H78.182C79.972 81.6911 81.4231 80.2401 81.4231 78.4501C81.4231 76.6601 79.972 75.209 78.182 75.209Z" fill="#E3C84C"/>
<path d="M78.182 62.2451H55.4945C53.7045 62.2451 52.2534 63.6962 52.2534 65.4862C52.2534 67.2762 53.7045 68.7273 55.4945 68.7273H78.182C79.972 68.7273 81.4231 67.2762 81.4231 65.4862C81.4231 63.6962 79.972 62.2451 78.182 62.2451Z" fill="#E3C84C"/>
<path d="M81.4232 88.1738H58.7357C56.9457 88.1738 55.4946 89.6249 55.4946 91.4149C55.4946 93.2049 56.9457 94.656 58.7357 94.656H81.4232C83.2132 94.656 84.6643 93.2049 84.6643 91.4149C84.6643 89.6249 83.2132 88.1738 81.4232 88.1738Z" fill="#E3C84C"/>
<path d="M18.2223 75.2097C26.2773 75.2097 32.8071 68.6799 32.8071 60.6249C32.8071 52.5699 26.2773 46.04 18.2223 46.04C10.1673 46.04 3.63745 52.5699 3.63745 60.6249C3.63745 68.6799 10.1673 75.2097 18.2223 75.2097Z" fill="#FDE05E"/>
<path d="M18.2224 71.9688C24.4874 71.9688 29.5662 66.89 29.5662 60.625C29.5662 54.36 24.4874 49.2812 18.2224 49.2812C11.9574 49.2812 6.87866 54.36 6.87866 60.625C6.87866 66.89 11.9574 71.9688 18.2224 71.9688Z" fill="#E3C84C"/>
<path d="M23.0839 63.8657C23.0839 62.5763 22.5717 61.3397 21.6599 60.428C20.7482 59.5163 19.5116 59.0041 18.2223 59.0041C17.9379 59.0038 17.6585 58.9287 17.4124 58.7863C17.1662 58.6438 16.9618 58.4392 16.8198 58.1928C16.6778 57.9464 16.6031 57.6669 16.6033 57.3825C16.6035 57.0981 16.6785 56.8188 16.8208 56.5726C16.9631 56.3263 17.1677 56.1219 17.4141 55.9798C17.6604 55.8377 17.9398 55.7629 18.2242 55.763C18.5086 55.763 18.788 55.838 19.0343 55.9802C19.2806 56.1224 19.4851 56.327 19.6273 56.5732C19.8489 56.9315 20.2014 57.1894 20.61 57.2922C21.0186 57.395 21.4512 57.3346 21.816 57.1239C22.1809 56.9131 22.4493 56.5685 22.5643 56.1632C22.6794 55.7579 22.6321 55.3237 22.4324 54.9527C21.8457 53.9662 20.9281 53.2197 19.8428 52.846V52.5219C19.8428 52.0921 19.6721 51.6799 19.3682 51.376C19.0642 51.0721 18.6521 50.9014 18.2223 50.9014C17.7925 50.9014 17.3803 51.0721 17.0764 51.376C16.7725 51.6799 16.6017 52.0921 16.6017 52.5219V52.8201C15.5213 53.2006 14.6105 53.9512 14.0305 54.939C13.4505 55.9267 13.2388 57.0879 13.4329 58.2168C13.627 59.3456 14.2144 60.3694 15.091 61.1067C15.9676 61.844 17.0768 62.2473 18.2223 62.2451C18.5067 62.2454 18.786 62.3205 19.0321 62.4629C19.2783 62.6053 19.4827 62.81 19.6247 63.0564C19.7667 63.3028 19.8414 63.5823 19.8412 63.8667C19.841 64.151 19.766 64.4304 19.6237 64.6766C19.4814 64.9228 19.2768 65.1273 19.0304 65.2694C18.7841 65.4115 18.5047 65.4863 18.2203 65.4862C17.9359 65.4861 17.6565 65.4112 17.4102 65.269C17.164 65.1268 16.9595 64.9222 16.8173 64.6759C16.5956 64.3176 16.2431 64.0597 15.8345 63.9569C15.4259 63.8542 14.9933 63.9146 14.6285 64.1253C14.2637 64.3361 13.9953 64.6806 13.8802 65.0859C13.7651 65.4913 13.8124 65.9254 14.0121 66.2965C14.5996 67.2836 15.5185 68.0301 16.605 68.4032V68.7273C16.605 69.1571 16.7757 69.5693 17.0796 69.8732C17.3835 70.1771 17.7957 70.3478 18.2255 70.3478C18.6553 70.3478 19.0675 70.1771 19.3714 69.8732C19.6753 69.5693 19.846 69.1571 19.846 68.7273V68.4291C20.7901 68.0946 21.6077 67.4767 22.1873 66.6599C22.7668 65.8431 23.08 64.8672 23.0839 63.8657Z" fill="#FDE05E"/>
</svg>
