<svg width="25" height="25" viewBox="0 0 25 25" fill="none" xmlns="http://www.w3.org/2000/svg">
<path d="M16.75 15.5C18.056 15.5 19.168 16.335 19.58 17.5H20.75C21.0152 17.5 21.2696 17.6054 21.4571 17.7929C21.6446 17.9804 21.75 18.2348 21.75 18.5C21.75 18.7652 21.6446 19.0196 21.4571 19.2071C21.2696 19.3946 21.0152 19.5 20.75 19.5H19.58C19.3734 20.0855 18.9903 20.5926 18.4834 20.9512C17.9765 21.3099 17.3709 21.5025 16.75 21.5025C16.1291 21.5025 15.5235 21.3099 15.0166 20.9512C14.5097 20.5926 14.1266 20.0855 13.92 19.5H4.75C4.48478 19.5 4.23043 19.3946 4.04289 19.2071C3.85536 19.0196 3.75 18.7652 3.75 18.5C3.75 18.2348 3.85536 17.9804 4.04289 17.7929C4.23043 17.6054 4.48478 17.5 4.75 17.5H13.92C14.1269 16.9148 14.5102 16.4083 15.017 16.0501C15.5239 15.6919 16.1293 15.4997 16.75 15.5ZM8.75 9.5C9.33899 9.49992 9.91497 9.67322 10.4061 9.99829C10.8973 10.3234 11.2819 10.7858 11.512 11.328L11.579 11.5H20.75C21.0049 11.5003 21.25 11.5979 21.4354 11.7728C21.6207 11.9478 21.7322 12.187 21.7472 12.4414C21.7621 12.6958 21.6793 12.9464 21.5157 13.1418C21.3521 13.3373 21.1201 13.4629 20.867 13.493L20.75 13.5H11.58C11.3784 14.0703 11.0092 14.5663 10.5207 14.9231C10.0323 15.2799 9.44744 15.4808 8.84285 15.4994C8.23827 15.518 7.64217 15.3534 7.13273 15.0273C6.62328 14.7012 6.22427 14.2288 5.988 13.672L5.92 13.5H4.75C4.49512 13.4997 4.24997 13.4021 4.06463 13.2272C3.8793 13.0522 3.76777 12.813 3.75283 12.5586C3.73789 12.3042 3.82067 12.0536 3.98426 11.8582C4.14786 11.6627 4.3799 11.5371 4.633 11.507L4.75 11.5H5.92C6.12688 10.9148 6.51016 10.4083 7.01702 10.0501C7.52387 9.69186 8.12935 9.49968 8.75 9.5ZM16.75 3.5C18.056 3.5 19.168 4.335 19.58 5.5H20.75C21.0152 5.5 21.2696 5.60536 21.4571 5.79289C21.6446 5.98043 21.75 6.23478 21.75 6.5C21.75 6.76522 21.6446 7.01957 21.4571 7.20711C21.2696 7.39464 21.0152 7.5 20.75 7.5H19.58C19.3734 8.08553 18.9903 8.59257 18.4834 8.95121C17.9765 9.30986 17.3709 9.50245 16.75 9.50245C16.1291 9.50245 15.5235 9.30986 15.0166 8.95121C14.5097 8.59257 14.1266 8.08553 13.92 7.5H4.75C4.48478 7.5 4.23043 7.39464 4.04289 7.20711C3.85536 7.01957 3.75 6.76522 3.75 6.5C3.75 6.23478 3.85536 5.98043 4.04289 5.79289C4.23043 5.60536 4.48478 5.5 4.75 5.5H13.92C14.1269 4.91484 14.5102 4.40826 15.017 4.05006C15.5239 3.69186 16.1293 3.49968 16.75 3.5Z" fill="#004AAC"/>
</svg>
