<svg width="25" height="25" viewBox="0 0 25 25" fill="none" xmlns="http://www.w3.org/2000/svg">
<path d="M6.75008 2.5H8.84208L6.74408 8.5H3.13208L5.85608 3.052C5.93921 2.88611 6.06686 2.74662 6.22474 2.64913C6.38263 2.55164 6.56452 2.50001 6.75008 2.5ZM3.20408 10.5L9.23208 19.874L6.69008 10.5H3.20408ZM8.76208 10.5L11.8221 21.79C11.8763 21.9947 11.9967 22.1758 12.1646 22.305C12.3324 22.4342 12.5383 22.5042 12.7501 22.5042C12.9619 22.5042 13.1677 22.4342 13.3356 22.305C13.5034 22.1758 13.6239 21.9947 13.6781 21.79L16.7461 10.5H8.76208ZM18.8181 10.5L16.2701 19.87L22.2961 10.5H18.8181ZM22.3681 8.5H18.7621L16.6621 2.5H18.7501C18.936 2.49964 19.1183 2.5511 19.2766 2.6486C19.4348 2.74611 19.5628 2.8858 19.6461 3.052L22.3681 8.5ZM16.6441 8.5H8.86408L10.9601 2.5H14.5401L16.6441 8.5Z" fill="#004AAC"/>
</svg>
