<svg width="33" height="33" viewBox="0 0 33 33" fill="none" xmlns="http://www.w3.org/2000/svg">
<path d="M18.2201 28.1416V25.4749H20.8867V28.1416H18.2201ZM15.5534 25.4749V18.8083H18.2201V25.4749H15.5534ZM26.2201 21.4749V16.1416H28.8867V21.4749H26.2201ZM23.5534 16.1416V13.4749H26.2201V16.1416H23.5534ZM7.55339 18.8083V16.1416H10.2201V18.8083H7.55339ZM4.88672 16.1416V13.4749H7.55339V16.1416H4.88672ZM16.8867 6.80827V4.1416H19.5534V6.80827H16.8867ZM6.88672 10.1416H10.8867V6.1416H6.88672V10.1416ZM4.88672 12.1416V4.1416H12.8867V12.1416H4.88672ZM6.88672 26.1416H10.8867V22.1416H6.88672V26.1416ZM4.88672 28.1416V20.1416H12.8867V28.1416H4.88672ZM22.8867 10.1416H26.8867V6.1416H22.8867V10.1416ZM20.8867 12.1416V4.1416H28.8867V12.1416H20.8867ZM23.5534 28.1416V24.1416H20.8867V21.4749H26.2201V25.4749H28.8867V28.1416H23.5534ZM18.2201 18.8083V16.1416H23.5534V18.8083H18.2201ZM12.8867 18.8083V16.1416H10.2201V13.4749H18.2201V16.1416H15.5534V18.8083H12.8867ZM14.2201 12.1416V6.80827H16.8867V9.47494H19.5534V12.1416H14.2201ZM7.88672 9.1416V7.1416H9.88672V9.1416H7.88672ZM7.88672 25.1416V23.1416H9.88672V25.1416H7.88672ZM23.8867 9.1416V7.1416H25.8867V9.1416H23.8867Z" fill="white"/>
</svg>
