<svg width="33" height="33" viewBox="0 0 33 33" fill="none" xmlns="http://www.w3.org/2000/svg">
  <path d="M6.65447 28.5C5.96347 28.5 5.38697 28.269 4.92497 27.807C4.46297 27.345 4.23147 26.768 4.23047 26.076V6.924C4.23047 6.233 4.46197 5.6565 4.92497 5.1945C5.38797 4.7325 5.96447 4.501 6.65447 4.5H22.0895C22.4125 4.5 22.7265 4.565 23.0315 4.695C23.3365 4.827 23.5975 5.0015 23.8145 5.2185L27.512 8.916C27.73 9.134 27.904 9.395 28.034 9.699C28.165 10.004 28.2305 10.318 28.2305 10.641V26.076C28.2305 26.767 27.9995 27.344 27.5375 27.807C27.0755 28.27 26.4985 28.501 25.8065 28.5H6.65447ZM26.7305 10.275L22.4555 6H6.65447C6.38447 6 6.16297 6.0865 5.98997 6.2595C5.81697 6.4325 5.73047 6.654 5.73047 6.924V26.0775C5.73047 26.3465 5.81697 26.5675 5.98997 26.7405C6.16297 26.9135 6.38447 27 6.65447 27H25.808C26.077 27 26.298 26.9135 26.471 26.7405C26.644 26.5675 26.7305 26.346 26.7305 26.076V10.275ZM16.2305 23.3085C17.0575 23.3085 17.7645 23.015 18.3515 22.428C18.9385 21.841 19.2315 21.134 19.2305 20.307C19.2295 19.48 18.936 18.7735 18.35 18.1875C17.764 17.6015 17.0575 17.3085 16.2305 17.3085C15.4035 17.3085 14.697 17.6015 14.111 18.1875C13.525 18.7735 13.2315 19.48 13.2305 20.307C13.2295 21.134 13.523 21.841 14.111 22.428C14.699 23.015 15.4055 23.3095 16.2305 23.3085ZM9.59597 13.155H18.308C18.656 13.155 18.945 13.04 19.175 12.81C19.405 12.58 19.52 12.2915 19.52 11.9445V9.8655C19.52 9.5175 19.405 9.2285 19.175 8.9985C18.945 8.7685 18.656 8.6535 18.308 8.6535H9.59597C9.24797 8.6535 8.95897 8.7685 8.72897 8.9985C8.49897 9.2285 8.38397 9.5175 8.38397 9.8655V11.943C8.38397 12.291 8.49897 12.58 8.72897 12.81C8.95897 13.04 9.24797 13.155 9.59597 13.155ZM5.73047 10.275V27V6V10.275Z" fill="black"/>
</svg>
