<svg width="25" height="25" viewBox="0 0 25 25" fill="none" xmlns="http://www.w3.org/2000/svg">
<path d="M9.55884 16.5C7.74217 16.5 6.20484 15.8707 4.94684 14.612C3.68884 13.3533 3.05951 11.816 3.05884 10C3.05817 8.184 3.68751 6.64667 4.94684 5.388C6.20617 4.12933 7.74351 3.5 9.55884 3.5C11.3742 3.5 12.9118 4.12933 14.1718 5.388C15.4318 6.64667 16.0608 8.184 16.0588 10C16.0588 10.7333 15.9422 11.425 15.7088 12.075C15.4755 12.725 15.1588 13.3 14.7588 13.8L20.3588 19.4C20.5422 19.5833 20.6338 19.8167 20.6338 20.1C20.6338 20.3833 20.5422 20.6167 20.3588 20.8C20.1755 20.9833 19.9422 21.075 19.6588 21.075C19.3755 21.075 19.1422 20.9833 18.9588 20.8L13.3588 15.2C12.8588 15.6 12.2838 15.9167 11.6338 16.15C10.9838 16.3833 10.2922 16.5 9.55884 16.5ZM9.55884 14.5C10.8088 14.5 11.8715 14.0627 12.7468 13.188C13.6222 12.3133 14.0595 11.2507 14.0588 10C14.0582 8.74933 13.6208 7.687 12.7468 6.813C11.8728 5.939 10.8102 5.50133 9.55884 5.5C8.30751 5.49867 7.24517 5.93633 6.37184 6.813C5.49851 7.68967 5.06084 8.752 5.05884 10C5.05684 11.248 5.49451 12.3107 6.37184 13.188C7.24917 14.0653 8.31151 14.5027 9.55884 14.5Z" fill="#FFA400"/>
</svg>
