<svg width="33" height="33" viewBox="0 0 33 33" fill="none" xmlns="http://www.w3.org/2000/svg">
<g clip-path="url(#clip0_692_1121)">
<path d="M21.5951 9.4748C21.9217 9.47484 22.2369 9.59474 22.481 9.81175C22.725 10.0288 22.8809 10.3278 22.9191 10.6521L22.9285 10.8081V23.6361L25.3658 21.1988C25.6052 20.9571 25.9279 20.8161 26.2679 20.8046C26.6078 20.793 26.9393 20.9119 27.1946 21.1368C27.4498 21.3616 27.6094 21.6756 27.6407 22.0143C27.6721 22.353 27.5728 22.6909 27.3631 22.9588L27.2511 23.0841L22.5378 27.7988C22.3082 28.0284 22.0027 28.1663 21.6787 28.1866C21.3547 28.207 21.0343 28.1085 20.7778 27.9095L20.6525 27.7988L15.9378 23.0841C15.6987 22.8442 15.5598 22.5222 15.5495 22.1836C15.5391 21.845 15.6581 21.5152 15.8821 21.2611C16.1062 21.007 16.4185 20.8477 16.7558 20.8156C17.093 20.7835 17.4298 20.8809 17.6978 21.0881L17.8245 21.1988L20.2618 23.6348V10.8081C20.2618 10.4545 20.4023 10.1154 20.6523 9.86532C20.9024 9.61527 21.2415 9.4748 21.5951 9.4748ZM11.8711 4.48413L16.5845 9.1988C16.7118 9.32179 16.8134 9.46892 16.8833 9.63159C16.9531 9.79426 16.9899 9.96922 16.9915 10.1463C16.993 10.3233 16.9593 10.4989 16.8922 10.6627C16.8252 10.8266 16.7262 10.9755 16.601 11.1007C16.4758 11.2258 16.3269 11.3249 16.1631 11.3919C15.9992 11.4589 15.8236 11.4927 15.6466 11.4911C15.4695 11.4896 15.2946 11.4528 15.1319 11.3829C14.9692 11.3131 14.8221 11.2115 14.6991 11.0841L12.2618 8.6468V21.4735C12.2618 21.8271 12.1213 22.1662 11.8713 22.4163C11.6212 22.6663 11.2821 22.8068 10.9285 22.8068C10.5748 22.8068 10.2357 22.6663 9.98565 22.4163C9.7356 22.1662 9.59512 21.8271 9.59512 21.4735V8.64813L7.15512 11.0841C6.90365 11.327 6.56685 11.4614 6.21726 11.4584C5.86766 11.4553 5.53324 11.3151 5.28603 11.0679C5.03882 10.8207 4.8986 10.4863 4.89556 10.1367C4.89252 9.78707 5.02691 9.45027 5.26979 9.1988L9.98446 4.48413C10.2345 4.23417 10.5736 4.09375 10.9271 4.09375C11.2807 4.09375 11.6211 4.23417 11.8711 4.48413Z" fill="white"/>
</g>
<defs>
<clipPath id="clip0_692_1121">
<rect width="32" height="32" fill="white" transform="translate(0.261719 0.141602)"/>
</clipPath>
</defs>
</svg>
