<svg width="41" height="41" viewBox="0 0 41 41" fill="none" xmlns="http://www.w3.org/2000/svg">
<circle cx="20.0193" cy="20.8135" r="19" fill="white" stroke="black" stroke-width="2"/>
<path d="M30.6958 29.5738L28.7891 31.4805L20.2025 22.8938L22.1091 20.9871L30.6958 29.5738ZM20.1891 7.48047C16.7491 7.48047 13.3091 8.8138 10.6958 11.4138L10.6558 11.4271C9.39777 12.677 8.39937 14.1634 7.71808 15.8006C7.03678 17.4379 6.68604 19.1938 6.68604 20.9671C6.68604 22.7405 7.03678 24.4964 7.71808 26.1336C8.39937 27.7709 9.39777 29.2573 10.6558 30.5071L29.7225 11.4271C27.1922 8.90181 23.764 7.48258 20.1891 7.48047ZM10.8825 26.5071C10.0724 25.1512 9.57113 23.6334 9.41442 22.0616C9.25771 20.4899 9.44938 18.903 9.97579 17.4138C10.2291 19.9605 11.1625 22.4671 12.7358 24.6671L10.8825 26.5071ZM14.6958 22.7205C12.8691 19.9871 12.1891 16.7205 12.8291 13.6138C13.6025 13.4805 14.3758 13.3738 15.1625 13.3738C17.5625 13.3738 19.8958 14.1071 21.9358 15.4805L14.6958 22.7205ZM16.6291 10.7605C18.1183 10.2341 19.7053 10.0424 21.277 10.1991C22.8487 10.3558 24.3665 10.857 25.7225 11.6671L23.8691 13.5205C21.7392 11.9823 19.2425 11.0305 16.6291 10.7605Z" fill="black"/>
</svg>
