<svg width="17" height="17" viewBox="0 0 17 17" fill="none" xmlns="http://www.w3.org/2000/svg">
<g clip-path="url(#clip0_171_822)">
<path d="M8.88672 16.8135C4.46822 16.8135 0.886719 13.232 0.886719 8.81348C0.886719 4.39498 4.46822 0.813477 8.88672 0.813477C13.3052 0.813477 16.8867 4.39498 16.8867 8.81348C16.8867 13.232 13.3052 16.8135 8.88672 16.8135ZM12.4217 4.81348L10.1347 7.07498C9.80197 7.40341 9.35325 7.58756 8.88572 7.58756C8.41819 7.58756 7.96947 7.40341 7.63672 7.07498L5.35172 4.81348H3.90422L6.91422 7.79198C7.43998 8.31016 8.14852 8.60064 8.88672 8.60064C9.62491 8.60064 10.3335 8.31016 10.8592 7.79198L13.8672 4.81348H12.4217ZM5.33422 13.095L7.63872 10.8135C7.97147 10.485 8.42019 10.3009 8.88772 10.3009C9.35525 10.3009 9.80397 10.485 10.1367 10.8135L12.4392 13.095H13.8867L10.8592 10.0985C10.3335 9.58029 9.62491 9.28981 8.88672 9.28981C8.14852 9.28981 7.43998 9.58029 6.91422 10.0985L3.88672 13.0945L5.33422 13.095Z" fill="black"/>
</g>
<defs>
<clipPath id="clip0_171_822">
<rect width="16" height="16" fill="white" transform="translate(0.886719 0.813477)"/>
</clipPath>
</defs>
</svg>
